PathFileType	4	(X/Y/Z)	/Users/itak/Documents/Research/Walk-IL/dataset/trc/00363_00011.trc
DataRate	CameraRate	NumFrames	NumMarkers	Units	OrigDataRate	OrigDataStartFrame	OrigNumFrames
100.000000	100.000000	4	56	mm	100.000000	0	416
Frame#	Time	RPSI			LPSI			L3			STRN			T10			C7			CLAV			RBAK			LBAK			LSHO			LUPA			LAEL			LAOL			LWPS			LFRA			LHPS			LHTS			RSHO			RUPA			RAEL			RAOL			RWPS			RFRA			RIFD			RHTS			RHPS			RBHD			LFHD			RFHD			LBHD			LHIP			RHIP			RASI			LASI			LKNE			LTHI			LANK			LTIP			LTOE			LMT1			LMT5			LHEE			RKNE			RTIP			RTOE			RMT1			RMT5			RHEE			LWTS			LIFD			RWTS			RTHI			RANK			*53			*54			*55			
		X1	Y1	Z1	X2	Y2	Z2	X3	Y3	Z3	X4	Y4	Z4	X5	Y5	Z5	X6	Y6	Z6	X7	Y7	Z7	X8	Y8	Z8	X9	Y9	Z9	X10	Y10	Z10	X11	Y11	Z11	X12	Y12	Z12	X13	Y13	Z13	X14	Y14	Z14	X15	Y15	Z15	X16	Y16	Z16	X17	Y17	Z17	X18	Y18	Z18	X19	Y19	Z19	X20	Y20	Z20	X21	Y21	Z21	X22	Y22	Z22	X23	Y23	Z23	X24	Y24	Z24	X25	Y25	Z25	X26	Y26	Z26	X27	Y27	Z27	X28	Y28	Z28	X29	Y29	Z29	X30	Y30	Z30	X31	Y31	Z31	X32	Y32	Z32	X33	Y33	Z33	X34	Y34	Z34	X35	Y35	Z35	X36	Y36	Z36	X37	Y37	Z37	X38	Y38	Z38	X39	Y39	Z39	X40	Y40	Z40	X41	Y41	Z41	X42	Y42	Z42	X43	Y43	Z43	X44	Y44	Z44	X45	Y45	Z45	X46	Y46	Z46	X47	Y47	Z47	X48	Y48	Z48	X49	Y49	Z49	X50	Y50	Z50	X51	Y51	Z51	X52	Y52	Z52	X53	Y53	Z53	X54	Y54	Z54	X55	Y55	Z55	X56	Y56	Z56	

1	0	-1413.214477539062	981.2981567382812	827.2703857421875	-1406.405639648438	981.2194213867188	698.8812866210938	-1409.268432617188	1034.173461914062	766.3983154296875	-1188.013427734375	1220.909423828125	765.0590209960938	-1422.043701171875	1152.116455078125	752.0983276367188	-1382.53076171875	1401.193359375	736.4467163085938	-1228.227783203125	1347.157836914062	756.1089477539062	-1434.703491210938	1262.731567382812	801.3735961914062	-1384.582397460938	1362.565795898438	634.2667236328125	-1294.953857421875	1380.966674804688	585.4334106445312	-1303.769775390625	1257.61083984375	519.980712890625	-1278.927612304688	1052.397827148438	518.0494384765625	-1347.076416015625	1039.64111328125	567.7316284179688	-1217.344360351562	800.3148803710938	523.567626953125	-1260.412963867188	948.7060546875	517.7468872070312	-1220.031982421875	731.3253784179688	531.3854370117188	-1169.030639648438	736.9668579101562	569.4894409179688	-1341.229125976562	1391.32421875	905.1610717773438	-1356.18408203125	1325.725219726562	966.7566528320312	-1343.997192382812	1056.145141601562	1001.462829589844	-1374.879760742188	1049.791870117188	912.3992919921875	-1268.3857421875	813.3662109375	1023.905151367188	-1317.99462890625	989.580322265625	1011.291381835938	-1212.867797851562	656.6346435546875	972.8098754882812	-1198.010009765625	729.41748046875	978.837890625	-1251.740844726562	730.4492797851562	1023.070617675781	-1353.263549804688	1609.18017578125	815.9150390625	-1168.881225585938	1622.664916992188	719.4175415039062	-1191.169189453125	1624.327026367188	817.8538818359375	-1347.586303710938	1601.107543945312	671.8638305664062	-1319.421997070312	923.7291870117188	596.1609497070312	-1342.5703125	931.5370483398438	943.5310668945312	-1230.243774414062	954.327880859375	901.58056640625	-1197.471435546875	944.8124389648438	663.760986328125	-1291.375244140625	466.8539733886719	585.294677734375	-1281.943969726562	605.4882202148438	584.8992309570312	-1373.8359375	50.67103576660156	564.97412109375	-1333.787719726562	255.424072265625	562.443359375	-1171.672119140625	48.64702224731445	633.0636596679688	-1241.275146484375	34.10900115966797	670.9076538085938	-1248.172729492188	47.28184509277344	557.5699462890625	-1411.96435546875	44.7279167175293	630.05322265625	-1310.651000976562	467.1328430175781	951.0813598632812	-1309.419677734375	347.4833679199219	950.2457275390625	-1199.749389648438	50.05226516723633	924.7516479492188	-1250.773193359375	46.49712371826172	877.9978637695312	-1299.4677734375	39.49723815917969	986.0574951171875	-1443.794555664062	56.42574691772461	901.87353515625	-1183.378173828125	814.513916015625	580.793701171875	-1176.688110351562	652.340087890625	587.6328735351562	-1226.124877929688	829.1813354492188	961.3695678710938	-1273.328002929688	729.1803588867188	965.4591064453125	-1396.826538085938	52.04429626464844	958.4567260742188	nan	nan	nan	nan	nan	nan	nan	nan	nan	
2	0.01	-1412.826416015625	981.3553466796875	827.7451171875	-1405.935546875	981.2659301757812	699.2708740234375	-1408.750732421875	1034.187744140625	766.7827758789062	-1187.597412109375	1220.728149414062	765.3936767578125	-1421.47314453125	1152.149047851562	752.4039306640625	-1381.949096679688	1401.165771484375	736.750732421875	-1227.658447265625	1347.143920898438	756.5082397460938	-1434.11962890625	1262.699462890625	801.68701171875	-1383.940307617188	1362.542236328125	634.596435546875	-1294.336669921875	1380.894287109375	585.6760864257812	-1303.059204101562	1257.581176757812	520.3460693359375	-1278.278076171875	1052.4169921875	518.3910522460938	-1346.382080078125	1039.6162109375	568.064697265625	-1216.692749023438	800.3310546875	524.025634765625	-1259.772583007812	948.64208984375	518.10400390625	-1219.346801757812	731.3309326171875	531.7120971679688	-1168.279174804688	736.9467163085938	569.9257202148438	-1340.661743164062	1391.224731445312	905.4347534179688	-1355.6640625	1325.685546875	967.0990600585938	-1343.4033203125	1056.03564453125	1001.727661132812	-1374.37353515625	1049.7431640625	912.730712890625	-1267.874755859375	813.2825927734375	1024.13525390625	-1317.421630859375	989.478759765625	1011.553039550781	-1212.294555664062	656.5662231445312	972.8727416992188	-1197.40576171875	729.414306640625	979.032470703125	-1251.1240234375	730.328369140625	1023.197692871094	-1352.542358398438	1609.125	816.1414794921875	-1168.2890625	1622.541381835938	719.6848754882812	-1190.48388671875	1624.3095703125	818.054931640625	-1347.062133789062	1601.128295898438	672.0781860351562	-1318.936767578125	923.7306518554688	596.6630859375	-1341.828491210938	931.1537475585938	943.4779052734375	-1229.78564453125	954.20361328125	901.8759155273438	-1197.066528320312	944.6683959960938	664.1192016601562	-1291.19189453125	466.7886657714844	585.2713623046875	-1281.738891601562	605.4495849609375	584.89453125	-1373.816284179688	50.58511734008789	564.8552856445312	-1333.559936523438	255.4098052978516	562.318603515625	-1171.678344726562	48.65511322021484	633.0406494140625	-1241.304443359375	34.15389633178711	670.8797607421875	-1248.174926757812	47.24203872680664	557.5578002929688	-1412.041137695312	44.74153900146484	629.8839111328125	-1309.354858398438	466.9927978515625	951.2313842773438	-1308.31005859375	347.2127685546875	950.181640625	-1199.757568359375	50.15469741821289	924.737060546875	-1250.798706054688	46.33525085449219	877.930419921875	-1299.4033203125	39.66691589355469	985.9401245117188	-1443.913452148438	56.67147445678711	901.5751953125	-1182.670776367188	814.4706420898438	581.2639770507812	-1175.871215820312	652.3517456054688	588.102783203125	-1225.579711914062	829.1559448242188	961.5825805664062	-1272.61474609375	728.9864501953125	965.6082153320312	-1397.005981445312	52.09445190429688	958.3303833007812	nan	nan	nan	nan	nan	nan	nan	nan	nan	
3	0.02	-1412.323120117188	981.4406127929688	828.3834228515625	-1405.335693359375	981.3402099609375	699.7997436523438	-1408.083374023438	1034.20849609375	767.3114624023438	-1186.976440429688	1220.532592773438	765.8416137695312	-1420.729858398438	1152.16943359375	752.82421875	-1381.19091796875	1401.125732421875	737.1566772460938	-1226.912841796875	1347.111083984375	757.022705078125	-1433.373779296875	1262.667358398438	802.1113891601562	-1383.115844726562	1362.503662109375	635.036376953125	-1293.5302734375	1380.784057617188	586.0316772460938	-1302.167846679688	1257.525268554688	520.8219604492188	-1277.454467773438	1052.419677734375	518.8336791992188	-1345.526611328125	1039.580932617188	568.4798583984375	-1215.825805664062	800.3346557617188	524.5933227539062	-1258.93505859375	948.5613403320312	518.5593872070312	-1218.458984375	731.3280639648438	532.1578369140625	-1167.33349609375	736.9200439453125	570.478515625	-1339.929565429688	1391.106811523438	905.8095703125	-1355.000854492188	1325.63525390625	967.5525512695312	-1342.650268554688	1055.894897460938	1002.073974609375	-1373.714111328125	1049.679565429688	913.1442260742188	-1267.208618164062	813.1768188476562	1024.448364257812	-1316.695922851562	989.357421875	1011.897888183594	-1211.557495117188	656.4765014648438	972.9784545898438	-1196.614135742188	729.4264526367188	979.2859497070312	-1250.325805664062	730.1786499023438	1023.378784179688	-1351.626831054688	1609.057739257812	816.4766845703125	-1167.523559570312	1622.389038085938	719.999755859375	-1189.597290039062	1624.281005859375	818.3142700195312	-1346.391723632812	1601.127807617188	672.4020385742188	-1318.319091796875	923.740478515625	597.3388671875	-1340.914916992188	930.7001342773438	943.5146484375	-1229.195068359375	954.0226440429688	902.304931640625	-1196.560668945312	944.4860229492188	664.6017456054688	-1290.964721679688	466.7115783691406	585.27294921875	-1281.482299804688	605.4052124023438	584.941162109375	-1373.799560546875	50.48969268798828	564.7208862304688	-1333.289916992188	255.3934631347656	562.1876831054688	-1171.689819335938	48.67561721801758	633.01171875	-1241.338012695312	34.2054557800293	670.8480224609375	-1248.17529296875	47.19957733154297	557.5499877929688	-1412.126953125	44.75777435302734	629.682861328125	-1307.699951171875	466.7898254394531	951.4169921875	-1306.899536132812	346.8616943359375	950.091064453125	-1199.765502929688	50.27412033081055	924.7125244140625	-1250.779174804688	46.15544509887695	877.8338012695312	-1299.326293945312	39.89519119262695	985.7858276367188	-1444.070678710938	56.98993682861328	901.204833984375	-1181.771728515625	814.4038696289062	581.85791015625	-1174.878540039062	652.3276977539062	588.7107543945312	-1224.881103515625	829.1270141601562	961.8504028320312	-1271.780029296875	728.8045043945312	965.9212036132812	-1397.18212890625	52.19414901733398	958.1693725585938	nan	nan	nan	nan	nan	nan	nan	nan	nan	
4	0.03	-1411.715942382812	981.5508422851562	829.1768798828125	-1404.625122070312	981.4456176757812	700.46826171875	-1407.288208007812	1034.238525390625	767.987548828125	-1186.142822265625	1220.3427734375	766.3978271484375	-1419.831420898438	1152.168212890625	753.3632202148438	-1380.274291992188	1401.0703125	737.661376953125	-1226.006591796875	1347.052490234375	757.640869140625	-1432.489135742188	1262.63671875	802.6438598632812	-1382.132446289062	1362.445068359375	635.5809936523438	-1292.551635742188	1380.630126953125	586.5096435546875	-1301.127563476562	1257.43603515625	521.3991088867188	-1276.480102539062	1052.393676757812	519.368408203125	-1344.540405273438	1039.529174804688	568.9650268554688	-1214.761962890625	800.311767578125	525.245361328125	-1257.920654296875	948.463623046875	519.10205078125	-1217.39306640625	731.3113403320312	532.718017578125	-1166.232177734375	736.8757934570312	571.1304931640625	-1339.052978515625	1390.978759765625	906.2880859375	-1354.214477539062	1325.575073242188	968.1115112304688	-1341.765014648438	1055.729370117188	1002.498291015625	-1372.918090820312	1049.597412109375	913.6319580078125	-1266.401611328125	813.0528564453125	1024.844360351562	-1315.844360351562	989.2237548828125	1012.325561523438	-1210.67138671875	656.3714599609375	973.1450805664062	-1195.65576171875	729.4588012695312	979.599609375	-1249.369262695312	730.0064086914062	1023.623107910156	-1350.547241210938	1608.981201171875	816.9314575195312	-1166.60595703125	1622.214721679688	720.3436889648438	-1188.531860351562	1624.237915039062	818.62646484375	-1345.594116210938	1601.095458984375	672.8473510742188	-1317.596435546875	923.753662109375	598.179931640625	-1339.905883789062	930.2327270507812	943.7167358398438	-1228.4931640625	953.7886962890625	902.8822021484375	-1195.973388671875	944.27294921875	665.208740234375	-1290.70361328125	466.6273498535156	585.3162231445312	-1281.179809570312	605.3603515625	585.0690307617188	-1373.789428710938	50.39339447021484	564.5830078125	-1332.998291015625	255.3747100830078	562.0691528320312	-1171.7060546875	48.70908737182617	632.9791259765625	-1241.373413085938	34.25928115844727	670.8153076171875	-1248.174194335938	47.1591796875	557.5475463867188	-1412.21337890625	44.77415084838867	629.4659423828125	-1305.743774414062	466.5184020996094	951.6389770507812	-1305.240234375	346.4376525878906	949.9794921875	-1199.773071289062	50.40201568603516	924.67578125	-1250.701904296875	45.96827697753906	877.7074584960938	-1299.241455078125	40.17879104614258	985.5968627929688	-1444.260986328125	57.36710357666016	900.7816772460938	-1180.712524414062	814.3115844726562	582.5531616210938	-1173.746215820312	652.262451171875	589.4361572265625	-1224.049438476562	829.0942993164062	962.16943359375	-1270.893798828125	728.6766357421875	966.4443969726562	-1397.332641601562	52.35143280029297	957.98193359375	nan	nan	nan	nan	nan	nan	nan	nan	nan	
